<svg xmlns="http://www.w3.org/2000/svg" xmlns:xlink="http://www.w3.org/1999/xlink" aria-hidden="true" role="img" class="iconify iconify--logos" width="31.88" height="32" preserveAspectRatio="xMidYMid meet" viewBox="0 0 256 257"><defs><linearGradient id="IconifyId1813088fe1fbc01fb466" x1="-.828%" x2="57.636%" y1="7.652%" y2="78.411%"><stop offset="0%" stop-color="#41D1FF"></stop><stop offset="100%" stop-color="#BD34FE"></stop></linearGradient><linearGradient id="IconifyId1813088fe1fbc01fb467" x1="43.376%" x2="50.316%" y1="2.242%" y2="89.03%"><stop offset="0%" stop-color="#FFEA83"></stop><stop offset="8.333%" stop-color="#FFDD35"></stop><stop offset="100%" stop-color="#FFA800"></stop></linearGradient></defs><path fill="url(#IconifyId1813088fe1fbc01fb466)" d="M255.153 37.938L134.897 252.976c-2.483 4.44-8.862 4.466-11.382.048L.875 37.958c-2.746-4.814 1.371-10.646 6.827-9.67l120.385 22.656a8.15 8.15 0 0 0 3.034-.007l117.93-23.056c5.392-.991 9.74 4.627 6.902 9.057Z"></path><path fill="url(#IconifyId1813088fe1fbc01fb467)" d="M185.432.063L96.44 17.501a3.27 3.27 0 0 0-2.634 3.014l-5.474 92.456a3.27 3.27 0 0 0 3.997 3.378l24.777-5.718c2.318-.535 4.413 1.507 3.936 3.838l-7.361 36.047c-.495 2.426 1.782 4.5 4.151 3.78l15.906-4.624c2.449-.709 4.932 1.123 4.92 3.684l-.563 89.447c-.04 3.457 4.559 5.319 7.066 3.039l57.755-51.244a3.27 3.27 0 0 0 1.095-3.087l-9.764-90.72a3.27 3.27 0 0 0-3.436-2.906l-25.508 1.305c-2.544.131-4.178-2.619-3.015-4.904l12.058-23.215a3.27 3.27 0 0 0-2.91-4.754L185.432.063Z"></path></svg>
